<mxfile host="app.diagrams.net" modified="2021-05-12T08:25:08.229Z" agent="5.0 (Windows NT 10.0; Win64; x64) AppleWebKit/537.36 (KHTML, like Gecko) Chrome/90.0.4430.93 Safari/537.36" etag="nTKYtfm5Eipbr6vXROUj" version="14.6.12" type="github">
  <diagram id="dmgmO7bRAtHj4-_pJnwU" name="Page-1">
    <mxGraphModel dx="782" dy="738" grid="1" gridSize="10" guides="1" tooltips="1" connect="1" arrows="1" fold="1" page="1" pageScale="1" pageWidth="827" pageHeight="1169" math="0" shadow="0">
      <root>
        <mxCell id="0" />
        <mxCell id="1" parent="0" />
        <mxCell id="ps3ZSt7fAVCGhmGbXtED-1" value="" style="strokeWidth=1;shadow=0;dashed=0;align=center;html=1;shape=mxgraph.mockup.containers.browserWindow;rSize=0;strokeColor=#666666;strokeColor2=#008cff;strokeColor3=#c4c4c4;mainText=,;recursiveResize=0;" vertex="1" parent="1">
          <mxGeometry x="60" y="25" width="730" height="560" as="geometry" />
        </mxCell>
        <mxCell id="ps3ZSt7fAVCGhmGbXtED-2" value="Page 1" style="strokeWidth=1;shadow=0;dashed=0;align=center;html=1;shape=mxgraph.mockup.containers.anchor;fontSize=17;fontColor=#666666;align=left;" vertex="1" parent="ps3ZSt7fAVCGhmGbXtED-1">
          <mxGeometry x="60" y="12" width="110" height="26" as="geometry" />
        </mxCell>
        <mxCell id="ps3ZSt7fAVCGhmGbXtED-3" value="https://www.hufflepuff.it" style="strokeWidth=1;shadow=0;dashed=0;align=center;html=1;shape=mxgraph.mockup.containers.anchor;rSize=0;fontSize=17;fontColor=#666666;align=left;" vertex="1" parent="ps3ZSt7fAVCGhmGbXtED-1">
          <mxGeometry x="130" y="60" width="250" height="26" as="geometry" />
        </mxCell>
        <mxCell id="ps3ZSt7fAVCGhmGbXtED-5" value="" style="rounded=0;whiteSpace=wrap;html=1;" vertex="1" parent="ps3ZSt7fAVCGhmGbXtED-1">
          <mxGeometry y="110" width="730" height="60" as="geometry" />
        </mxCell>
        <mxCell id="ps3ZSt7fAVCGhmGbXtED-15" value="Login" style="strokeWidth=1;shadow=0;dashed=0;align=center;html=1;shape=mxgraph.mockup.buttons.button;strokeColor=#666666;fontColor=#ffffff;mainText=;buttonStyle=round;fontSize=17;fontStyle=1;fillColor=#008cff;whiteSpace=wrap;" vertex="1" parent="ps3ZSt7fAVCGhmGbXtED-1">
          <mxGeometry x="580" y="120" width="120" height="40" as="geometry" />
        </mxCell>
        <mxCell id="ps3ZSt7fAVCGhmGbXtED-16" value="&lt;span style=&quot;font-size: 34px&quot;&gt;&lt;b&gt;HUFFLEPUFF&lt;/b&gt;&lt;/span&gt;" style="text;html=1;strokeColor=none;fillColor=none;align=center;verticalAlign=middle;whiteSpace=wrap;rounded=0;" vertex="1" parent="ps3ZSt7fAVCGhmGbXtED-1">
          <mxGeometry x="10" y="110" width="260" height="60" as="geometry" />
        </mxCell>
      </root>
    </mxGraphModel>
  </diagram>
</mxfile>
